HIERARCHY
ROOT Hips
{
	OFFSET 0.000000 88.474243 0.000000
	CHANNELS 6 Xposition Yposition Zposition Zrotation Yrotation Xrotation 
	JOINT Hips_Spine
	{
		OFFSET 0.000000 0.000000 0.000000
		CHANNELS 3 Zrotation Yrotation Xrotation
		JOINT Spine
		{
			OFFSET 0.005100 8.711998 -0.691000
			CHANNELS 3 Zrotation Yrotation Xrotation
			JOINT Spine1
			{
				OFFSET -0.009200 8.660301 -1.275000
				CHANNELS 3 Zrotation Yrotation Xrotation
				JOINT Spine2
				{
					OFFSET 0.006300 9.852501 -1.857000
					CHANNELS 3 Zrotation Yrotation Xrotation
					JOINT Spine2_Neck
					{
						OFFSET 0.000000 0.000000 0.000000
						CHANNELS 3 Zrotation Yrotation Xrotation
						JOINT Neck
						{
							OFFSET 0.016300 11.420799 -0.263300
							CHANNELS 3 Zrotation Yrotation Xrotation
							End Site #name: Head
							{
								OFFSET -0.019200 9.262405 2.362500
							}
						}
					}
					JOINT Spine2_LeftShoulder
					{
						OFFSET 0.000000 0.000000 0.000000
						CHANNELS 3 Zrotation Yrotation Xrotation
						JOINT LeftShoulder
						{
							OFFSET 5.616900 6.732201 -0.345700
							CHANNELS 3 Zrotation Yrotation Xrotation
							JOINT LeftArm
							{
								OFFSET 10.664888 -0.183372 -2.440700
								CHANNELS 3 Zrotation Yrotation Xrotation
								JOINT LeftForeArm
								{
									OFFSET 27.459126 0.000000 0.000000
									CHANNELS 3 Zrotation Yrotation Xrotation
									End Site #name: LeftHand
									{
										OFFSET 21.306858 0.000000 0.000000
									}
								}
							}
						}
					}
					JOINT Spine2_RightShoulder
					{
						OFFSET 0.000000 0.000000 0.000000
						CHANNELS 3 Zrotation Yrotation Xrotation
						JOINT RightShoulder
						{
							OFFSET -5.580300 6.737503 -0.344400
							CHANNELS 3 Zrotation Yrotation Xrotation
							JOINT RightArm
							{
								OFFSET -10.679335 -0.188484 -2.383900
								CHANNELS 3 Zrotation Yrotation Xrotation
								JOINT RightForeArm
								{
									OFFSET -27.503529 0.000000 0.000000
									CHANNELS 3 Zrotation Yrotation Xrotation
									End Site #name: RightHand
									{
										OFFSET -21.306808 0.000000 0.000000
									}
								}
							}
						}
					}
				}
			}
		}
	}
	JOINT Hips_LeftUpLeg
	{
		OFFSET 0.000000 0.000000 0.000000
		CHANNELS 3 Zrotation Yrotation Xrotation
		JOINT LeftUpLeg
		{
			OFFSET 6.857700 -6.739601 0.312100
			CHANNELS 3 Zrotation Yrotation Xrotation
			JOINT LeftLeg
			{
				OFFSET -0.367590 -34.731552 -4.572400
				CHANNELS 3 Zrotation Yrotation Xrotation
				End Site #name: LeftFoot
				{
					OFFSET 0.367590 -34.656704 -6.067400
				}
			}
		}
	}
	JOINT Hips_RightUpLeg
	{
		OFFSET 0.000000 0.000000 0.000000
		CHANNELS 3 Zrotation Yrotation Xrotation
		JOINT RightUpLeg
		{
			OFFSET -6.876100 -6.733299 0.301000
			CHANNELS 3 Zrotation Yrotation Xrotation
			JOINT RightLeg
			{
				OFFSET 0.347353 -34.795158 -4.515900
				CHANNELS 3 Zrotation Yrotation Xrotation
				End Site #name: RightFoot
				{
					OFFSET -0.347353 -34.589367 -6.070300
				}
			}
		}
	}
}
MOTION
Frames: 6
Frame Time: 0.041667
0.032336 -0.026255 -0.074586 -178.053787 59.029899 -173.820095 -0.000000 -0.000000 0.000000 -3.722257 3.587723 -0.922748 0.913468 -0.369786 0.407392 0.000000 0.000000 0.000000 0.261388 -0.944173 -3.013534 -1.782768 -8.445242 -0.623687 0.498319 -0.094183 -1.210817 -3.325431 -7.234867 1.527643 -78.299752 -8.885229 10.412162 0.850342 -16.978922 3.791504 0.228884 -0.522417 -1.865179 18.359447 12.626871 4.731653 51.537182 11.097426 -8.902285 -6.780978 68.789909 -0.273860 -0.000000 -0.000000 0.000000 -8.393749 18.336127 -15.664652 -7.448106 -37.286862 0.884282 -0.000000 -0.000000 -0.000000 -9.334676 -32.210298 -7.032371 -15.417440 -10.359640 14.588971 
-0.268502 -0.212453 -0.129770 178.940180 63.332196 -175.231993 -0.000000 -0.000000 0.000000 -5.466513 1.932096 1.345670 1.134062 -0.676462 -0.731551 0.000000 0.000000 0.000000 1.065067 -0.671339 -3.085213 -0.592455 -16.660947 0.173607 0.595054 -0.356107 -1.937750 -2.243625 -8.749389 1.769167 -84.088895 -15.666214 6.471798 -1.085489 -13.833795 1.728923 0.895493 -0.870126 -0.755656 23.910693 15.617522 4.781871 50.539578 9.811500 -10.753362 -4.005703 51.298216 2.043515 -0.000000 -0.000000 -0.000000 -6.659975 19.377539 -13.609719 -3.946669 -34.881866 -5.021469 -0.000000 -0.000000 -0.000000 -9.781197 -38.550992 -5.684191 -13.458315 -6.364705 13.812146 
-0.309558 -0.293638 -0.163097 177.502583 52.650708 -176.529131 -0.000000 -0.000000 0.000000 -6.323759 -0.602699 2.102007 1.366663 -0.669091 -1.419212 0.000000 0.000000 0.000000 1.455922 -0.840576 -3.362527 -1.330100 -26.486768 0.309905 0.624732 -0.309719 -2.513910 -1.040092 -7.894048 1.126976 -85.646841 -17.035686 1.234814 -0.825701 -8.001951 2.030694 1.221386 -1.020021 -2.252443 25.337459 17.442066 5.672484 51.190773 10.212242 -5.838871 -2.614141 47.167387 5.021080 -0.000000 0.000000 -0.000000 -5.299927 20.501200 -12.237863 -2.974296 -33.668436 -7.154853 -0.000000 -0.000000 -0.000000 -10.343111 -44.204782 -3.341283 -13.532113 -6.189236 14.781118 
-0.196048 -0.344417 -0.195650 177.911286 39.860353 -176.967335 -0.000000 -0.000000 0.000000 -6.184696 -1.517710 2.708735 1.036940 -1.036531 -1.901567 0.000000 0.000000 0.000000 1.348632 -1.087401 -3.332238 -2.023844 -31.504868 0.452654 0.470334 -0.502389 -2.940145 -0.668664 -7.113811 0.783583 -86.684512 -18.336179 -0.663204 -0.515387 -4.983440 2.205009 0.982787 -1.411302 -2.492664 23.791017 16.823351 5.630906 51.667138 11.288006 -3.013744 -0.932913 46.639204 6.340591 -0.000000 0.000000 -0.000000 -4.624620 21.445233 -11.054938 -2.367848 -34.352481 -7.901611 -0.000000 -0.000000 -0.000000 -11.501790 -51.623563 -1.681570 -14.058126 -5.458603 16.073901 
-0.043675 -0.361733 -0.267641 177.699270 28.053700 -177.518832 -0.000000 -0.000000 0.000000 -5.661207 -1.690214 2.903104 0.587007 -1.280095 -2.130252 0.000000 0.000000 0.000000 1.110667 -1.318184 -2.945188 -2.043256 -33.174914 0.340046 0.193573 -0.743883 -3.008427 -0.711915 -6.390518 0.617138 -87.344207 -19.301143 -0.522610 0.284109 -3.349905 3.083156 0.615081 -1.629156 -2.261417 21.186431 15.435971 5.251580 52.373829 11.715176 -0.291281 0.161255 47.482835 6.343841 -0.000000 0.000000 -0.000000 -4.268588 22.169379 -10.326335 -2.072587 -34.843840 -8.274678 -0.000000 -0.000000 -0.000000 -12.174312 -57.074923 -0.886791 -14.892522 -4.774659 17.296287 
0.118430 -0.355239 -0.375962 176.991745 18.184874 -177.974437 -0.000000 -0.000000 0.000000 -5.059793 -1.489955 3.062656 0.209648 -1.452399 -1.927755 0.000000 0.000000 0.000000 0.883147 -1.432005 -2.232975 -1.476292 -32.470279 -0.538990 -0.055447 -0.895037 -2.635708 -0.844607 -5.720686 0.534284 -87.794278 -19.395148 0.133612 1.118255 -2.787991 3.815708 0.289922 -1.739375 -1.594911 19.036407 14.224109 5.183963 53.212526 10.718188 2.459259 -0.666465 48.507019 5.255693 -0.000000 0.000000 -0.000000 -4.300929 22.380432 -10.086722 -1.943844 -35.242862 -8.624552 -0.000000 -0.000000 -0.000000 -12.255555 -60.711997 -0.862198 -15.678990 -4.461955 18.141943 
